<svg width="90" height="89" viewBox="0 0 90 89" fill="none" xmlns="http://www.w3.org/2000/svg">
<mask id="mask0_65_18" style="mask-type:luminance" maskUnits="userSpaceOnUse" x="0" y="0" width="90" height="86">
<path d="M89.1953 0H0V85.7002H89.1953V0Z" fill="white"/>
</mask>
<g mask="url(#mask0_65_18)">
<path fill-rule="evenodd" clip-rule="evenodd" d="M89.1254 0.699296L88.7758 0.373086L88.4496 0.046875C47.5801 39.4252 38.0035 35.9067 0.815478 0.046875L0.116455 0.699296C37.3278 36.5592 40.9627 45.7863 0.116455 85.1879L0.792177 85.8403C41.6384 46.462 51.2383 49.9804 88.4263 85.8403L89.1021 85.1879C51.9374 49.328 48.2791 40.0776 89.1254 0.699296Z" fill="#9BD2D2"/>
</g>
<path d="M57.431 88.1859C57.261 71.5471 56.8383 62.1269 51.9557 57.363C47.5427 53.0581 39.2063 52.317 25 52.093C39.2063 51.869 47.542 51.1296 51.9557 46.8229C56.8383 42.059 57.2618 32.637 57.431 16C57.601 32.6388 58.0237 42.059 62.9063 46.8229C67.32 51.1278 75.6557 51.869 89.862 52.093C75.6557 52.317 67.32 53.0563 62.9063 57.363C58.0237 62.1251 57.601 71.5471 57.431 88.1859Z" fill="black"/>
</svg>
