<svg width="552" height="64" viewBox="0 0 552 64" fill="none" xmlns="http://www.w3.org/2000/svg">
<path d="M123.123 14.866C123.123 9.76495 123.123 7.14153 124.144 5.10109C125.019 3.35215 126.478 1.89469 128.229 1.02022C130.271 0 132.751 0 138.002 0H149.234C154.339 0 156.965 0 159.007 1.02022C160.758 1.89469 162.216 3.35215 163.091 5.10109C164.113 7.14153 164.113 9.6192 164.113 14.866V26.0884C164.113 31.1895 164.113 33.8129 163.091 35.8534C162.216 37.6023 160.758 39.0598 159.007 39.9343C156.965 40.9545 154.485 40.9545 149.234 40.9545H138.002C132.896 40.9545 130.271 40.9545 128.229 39.9343C126.478 39.0598 125.019 37.6023 124.144 35.8534C123.123 33.8129 123.123 31.3353 123.123 26.0884V14.866Z" fill="#00005B"/>
<path d="M131.875 29.0033V10.6394C131.875 10.4936 131.875 10.4936 132.021 10.4936C133.772 10.4936 135.522 10.3479 137.272 10.3479C140.19 10.3479 143.253 11.3681 144.274 14.4288C144.566 15.1575 144.712 15.8862 144.712 16.7607C144.712 18.3639 144.42 19.5299 143.691 20.5501C141.794 23.3192 138.439 23.3192 135.522 23.3192V29.0033C135.522 29.1491 135.376 29.2948 135.23 29.2948H132.021C131.875 29.2948 131.875 29.1491 131.875 29.0033ZM135.668 13.8458V19.8214C136.835 19.9671 138.002 19.9671 139.169 19.5299C140.482 19.0926 141.065 18.0724 141.065 16.7607C141.065 15.5947 140.482 14.5745 139.46 14.1373C138.294 13.7 136.835 13.7 135.668 13.8458Z" fill="#9999FF"/>
<path d="M147.046 15.0118H150.109C150.255 15.0118 150.401 15.1575 150.401 15.3033C150.547 15.7405 150.693 16.4692 150.693 16.9065C151.276 16.3235 151.86 15.7405 152.589 15.3033C153.318 14.866 154.194 14.5745 155.069 14.7203C155.215 14.7203 155.36 14.866 155.36 15.0118V18.5097C155.36 18.6554 155.215 18.6554 155.069 18.6554C153.756 18.5097 151.86 18.9469 150.839 19.9671V29.0033C150.839 29.1491 150.839 29.2948 150.547 29.2948H147.338C147.192 29.2948 147.046 29.1491 147.046 29.0033V19.2384C147.046 17.9267 147.046 16.615 146.9 15.3033C146.9 15.1575 147.046 15.0118 147.046 15.0118Z" fill="#9999FF"/>
<path d="M61.8577 14.866C61.8577 9.76495 61.8577 7.14153 62.8788 5.10109C63.754 3.35215 65.2127 1.89469 66.9631 1.02022C69.0053 0 71.4851 0 76.7364 0H87.9684C93.0738 0 95.6995 0 97.7416 1.02022C99.4921 1.89469 100.951 3.35215 101.826 5.10109C102.847 7.14153 102.847 9.6192 102.847 14.866V26.0884C102.847 31.1895 102.847 33.8129 101.826 35.8534C100.951 37.6023 99.4921 39.0598 97.7416 39.9343C95.6995 40.9545 93.2197 40.9545 87.9684 40.9545H76.7364C71.6309 40.9545 69.0053 40.9545 66.9631 39.9343C65.2127 39.0598 63.754 37.6023 62.8788 35.8534C61.8577 33.8129 61.8577 31.3353 61.8577 26.0884V14.866Z" fill="#330000"/>
<path d="M81.6961 25.7969H75.4237L74.1109 29.8777C74.1109 30.0235 73.965 30.1692 73.8191 30.1692H70.61C70.4641 30.1692 70.3182 30.0235 70.4641 29.8777L76.0072 13.7C76.0072 13.5542 76.153 13.4085 76.153 13.117C76.2989 12.6798 76.2989 12.3883 76.2989 11.951C76.2989 11.8053 76.4448 11.8053 76.4448 11.8053H80.8209C80.9667 11.8053 80.9667 11.8053 81.1126 11.951L87.385 29.8777C87.385 30.0235 87.385 30.1692 87.2391 30.1692H83.7383C83.5924 30.1692 83.4465 30.1692 83.4465 30.0235L81.6961 25.7969ZM76.2989 22.299H80.675C79.9456 19.8213 79.2163 17.4894 78.4869 15.0117C77.7576 17.4894 77.0283 19.8213 76.2989 22.299Z" fill="#FF9A00"/>
<path d="M90.74 14.7203C90.4483 14.7203 90.1566 14.7203 89.8648 14.5745C89.5731 14.4288 89.4272 14.283 89.1355 14.1373C88.9896 13.9915 88.8437 13.7 88.6979 13.4086C88.552 13.1171 88.552 12.8256 88.552 12.5341C88.552 12.2426 88.552 11.9511 88.6979 11.6596C88.8437 11.3681 88.9896 11.0766 89.1355 10.9309C89.2814 10.7851 89.5731 10.6394 89.8648 10.4936C90.1566 10.3479 90.4483 10.3479 90.74 10.3479C91.4694 10.3479 91.907 10.4936 92.3446 10.9309C92.4905 11.0766 92.6364 11.3681 92.7822 11.6596C92.9281 11.9511 92.9281 12.2426 92.9281 12.5341C92.9281 12.8256 92.9281 13.1171 92.7822 13.4086C92.6364 13.7 92.4905 13.9915 92.3446 14.1373C92.1988 14.283 91.907 14.5745 91.6153 14.5745C91.3235 14.7203 91.0318 14.7203 90.74 14.7203ZM88.8437 29.8778V16.4692C88.8437 16.3235 88.9896 16.1777 89.1355 16.1777H92.4905C92.6364 16.1777 92.7822 16.3235 92.7822 16.4692V29.8778C92.7822 30.0235 92.6364 30.1693 92.4905 30.1693H89.1355C88.9896 30.1693 88.8437 30.0235 88.8437 29.8778Z" fill="#FF9A00"/>
<path d="M0.592407 14.866C0.592407 9.76495 0.592407 7.14153 1.6135 5.10109C2.48871 3.35215 3.94741 1.89469 5.69785 1.02022C7.74003 0 10.2198 0 15.4711 0H26.7031C31.8085 0 34.4342 0 36.4764 1.02022C38.2268 1.89469 39.6855 3.35215 40.5607 5.10109C41.5818 7.14153 41.5818 9.6192 41.5818 14.866V26.0884C41.5818 31.1895 41.5818 33.8129 40.5607 35.8534C39.6855 37.6023 38.2268 39.0598 36.4764 39.9343C34.4342 40.9545 31.9544 40.9545 26.7031 40.9545H15.4711C10.3657 40.9545 7.74003 40.9545 5.69785 39.9343C3.94741 39.0598 2.48871 37.6023 1.6135 35.8534C0.592407 33.8129 0.592407 31.3353 0.592407 26.0884V14.866Z" fill="#001E36"/>
<path d="M9.3446 30.0235V12.0968C9.3446 11.951 9.3446 11.951 9.49047 11.951C11.2409 11.951 12.9914 11.8053 14.7418 11.8053C17.6592 11.8053 20.7225 12.8255 21.7435 15.7404C22.0353 16.4692 22.1812 17.1979 22.1812 18.0724C22.1812 19.5298 21.8894 20.8415 21.1601 21.716C19.2638 24.4852 15.9087 24.3394 12.9914 24.3394V29.8777C12.9914 30.0235 12.8455 30.1692 12.6996 30.1692H9.49047C9.3446 30.315 9.3446 30.1692 9.3446 30.0235ZM12.9914 15.3032V21.133C14.1583 21.2788 15.3253 21.2788 16.4922 20.8415C17.8051 20.55 18.3885 19.3841 18.3885 18.0724C18.3885 16.9064 17.8051 15.8862 16.784 15.5947C15.7629 15.1574 14.3042 15.1574 12.9914 15.3032Z" fill="#31A8FF"/>
<path d="M32.8296 19.9671C32.2461 19.6756 31.8085 19.5299 31.225 19.3841C30.4957 19.2384 27.5783 18.6554 27.5783 20.1129C27.5783 20.9873 28.8911 21.4246 29.4746 21.5703C31.5167 22.299 33.8507 23.6107 33.8507 26.0884C33.8507 29.2948 30.7874 30.4608 28.1617 30.4608C26.8489 30.4608 25.3902 30.315 24.0774 29.7321C23.9315 29.7321 23.9315 29.5863 23.9315 29.4406V26.3799C23.9315 26.2342 24.0774 26.0884 24.2233 26.2342C25.3902 26.9629 26.8489 27.4001 28.3076 27.4001C28.8911 27.4001 30.2039 27.4001 30.2039 26.3799C30.2039 25.5054 28.7452 25.0682 28.1617 24.9225C27.2865 24.631 26.5572 24.1937 25.682 23.6107C24.6609 22.882 23.9315 21.7161 23.9315 20.4043C23.9315 17.4894 26.703 16.032 29.3287 16.032C30.4957 16.032 31.8085 16.1777 32.9754 16.615C33.1213 16.615 33.1213 16.7607 33.1213 17.0522V19.8214C33.1213 19.9671 32.9754 20.1129 32.8296 19.9671Z" fill="#31A8FF"/>
<path d="M496.55 14.866C496.55 9.76494 496.55 7.14153 497.571 5.10109C498.446 3.35215 499.905 1.89469 501.655 1.02021C503.697 -4.43042e-06 506.177 0 511.428 0H522.66C527.766 0 530.391 -4.43042e-06 532.434 1.02021C534.184 1.89469 535.643 3.35215 536.518 5.10109C537.539 7.14153 537.539 9.6192 537.539 14.866V26.0884C537.539 31.1895 537.539 33.813 536.518 35.8534C535.643 37.6023 534.184 39.0598 532.434 39.9342C530.391 40.9545 527.912 40.9545 522.66 40.9545H511.428C506.323 40.9545 503.697 40.9545 501.655 39.9342C499.905 39.0598 498.446 37.6023 497.571 35.8534C496.55 33.813 496.55 31.3353 496.55 26.0884V14.866Z" fill="#242424"/>
<path d="M508.073 21.133C502.384 25.3597 501.218 31.481 501.218 36.5821C501.509 35.1246 502.676 31.481 505.302 29.4405C509.24 26.3799 516.534 27.4001 524.557 22.0075C532.58 16.7607 533.309 9.7649 532.288 4.51807C531.558 9.61916 529.225 11.8053 525.87 13.8458C518.576 18.0724 514.054 16.6149 508.073 21.133Z" fill="url(#paint0_linear_91_273)"/>
<path d="M508.073 21.133C502.384 25.3597 501.218 31.481 501.218 36.5821C501.509 35.1246 502.676 31.481 505.302 29.4405C509.24 26.3799 516.534 27.4001 524.557 22.0075C532.58 16.7607 533.309 9.7649 532.288 4.51807C531.558 9.61916 529.225 11.8053 525.87 13.8458C518.576 18.0724 514.054 16.6149 508.073 21.133Z" fill="url(#paint1_linear_91_273)"/>
<path d="M501.218 34.3959C501.509 29.7321 502.968 24.7767 507.928 21.1331C511.137 18.8011 513.908 18.0724 516.826 17.3437C518.576 16.9064 520.326 16.4692 522.223 15.5947C521.493 16.3235 518.138 17.9267 515.513 18.9469C513.033 19.9671 510.261 21.1331 508.073 22.5905C503.697 25.6512 501.801 30.7523 501.218 34.3959Z" fill="url(#paint2_linear_91_273)"/>
<path d="M501.218 34.3959C501.509 29.7321 502.968 24.7767 507.928 21.1331C511.137 18.8011 513.908 18.0724 516.826 17.3437C518.576 16.9064 520.326 16.4692 522.223 15.5947C521.493 16.3235 518.138 17.9267 515.513 18.9469C513.033 19.9671 510.261 21.1331 508.073 22.5905C503.697 25.6512 501.801 30.7523 501.218 34.3959Z" fill="url(#paint3_linear_91_273)"/>
<path d="M528.933 18.2182C528.349 18.8011 527.766 19.2384 527.037 19.6756C523.973 21.5703 520.618 22.1533 517.409 22.7363C514.784 23.1735 512.304 23.6107 509.97 24.7767C504.719 27.2544 501.509 32.2097 501.072 36.5821C501.072 36.2906 501.072 35.8533 501.072 35.5619C501.072 34.9789 501.218 34.3959 501.218 33.8129C501.947 30.1693 503.843 25.5054 507.928 22.7363C509.678 21.5703 511.72 20.5501 513.762 19.6756C515.513 19.0926 517.263 18.6554 518.722 18.3639C521.202 17.7809 523.39 17.3437 525.87 16.032C530.975 13.4086 532.434 7.87022 531.996 4.66382C533.163 8.59895 532.871 13.7 528.933 18.2182Z" fill="url(#paint4_linear_91_273)"/>
<path d="M528.933 18.2181C528.349 18.8011 527.766 19.2384 527.037 19.6756C523.973 21.5703 520.618 22.1533 517.409 22.7363C514.783 23.1735 512.304 23.6107 509.97 24.7767C506.907 26.2341 504.573 28.4203 503.114 30.898C504.427 29.0033 506.469 26.9629 509.095 26.0884C511.574 25.3597 513.908 25.2139 516.388 25.0682C517.117 25.0682 517.847 25.0682 518.576 24.9224C520.472 24.1937 522.515 23.3192 524.703 21.8618C526.453 20.6958 527.766 19.5298 528.933 18.2181Z" fill="url(#paint5_linear_91_273)"/>
<path d="M528.933 18.2181C528.349 18.8011 527.766 19.2384 527.037 19.6756C523.973 21.5703 520.618 22.1533 517.409 22.7363C514.783 23.1735 512.304 23.6107 509.97 24.7767C506.907 26.2341 504.573 28.4203 503.114 30.898C504.427 29.0033 506.469 26.9629 509.095 26.0884C511.574 25.3597 513.908 25.2139 516.388 25.0682C517.117 25.0682 517.847 25.0682 518.576 24.9224C520.472 24.1937 522.515 23.3192 524.703 21.8618C526.453 20.6958 527.766 19.5298 528.933 18.2181Z" fill="url(#paint6_linear_91_273)"/>
<path d="M532.288 4.51807C531.559 9.47341 529.079 11.8053 525.87 13.7C524.557 14.4287 523.39 15.0117 522.369 15.449C521.639 16.1777 518.284 17.7809 515.659 18.8011C515.075 18.9468 514.638 19.2383 514.054 19.5298C515.805 18.9468 517.555 18.5096 519.014 18.2181C521.494 17.6351 523.682 17.1979 526.161 15.8862C531.413 13.2628 532.726 7.72447 532.288 4.51807Z" fill="url(#paint7_linear_91_273)"/>
<path d="M532.288 4.51807C531.559 9.47341 529.079 11.8053 525.87 13.7C524.557 14.4287 523.39 15.0117 522.369 15.449C521.639 16.1777 518.284 17.7809 515.659 18.8011C515.075 18.9468 514.638 19.2383 514.054 19.5298C515.805 18.9468 517.555 18.5096 519.014 18.2181C521.494 17.6351 523.682 17.1979 526.161 15.8862C531.413 13.2628 532.726 7.72447 532.288 4.51807Z" fill="url(#paint8_linear_91_273)"/>
<path d="M457.165 1.69628C457.165 0.384568 455.706 0.384569 455.123 0.530314C455.998 -0.198413 457.019 -0.0526686 457.457 0.238822L466.063 4.46544C466.938 4.90267 467.376 5.77715 467.376 6.65162V34.489C467.376 35.3635 466.792 36.2379 466.063 36.6752L457.894 40.4646C457.311 40.7561 456.144 41.339 455.123 40.4646C456.436 40.7561 457.019 39.7358 457.165 39.1529V1.69628Z" fill="url(#paint9_linear_91_273)"/>
<path d="M455.269 0.530403C455.998 0.384658 457.311 0.530402 457.311 1.69637V11.3156L431.2 31.137C430.762 31.4284 430.033 31.4284 429.741 30.9912L427.116 28.0763C426.678 27.6391 426.678 26.9103 427.116 26.4731L455.269 0.530403Z" fill="url(#paint10_linear_91_273)"/>
<path d="M457.165 29.8252L431.054 10.0038C430.617 9.71232 429.887 9.71232 429.595 10.1496L426.97 13.0645C426.532 13.5017 426.532 14.2304 426.97 14.6677L455.123 40.4646C456.436 40.7561 457.019 39.7359 457.165 39.1529V29.8252Z" fill="url(#paint11_linear_91_273)"/>
<path d="M251.488 37.9869L248.571 1.55054H283.58L280.662 37.9869L266.075 42.3593L251.488 37.9869Z" fill="#1172B8"/>
<path d="M280.662 4.46545H266.075V40.1731L277.745 36.5295L280.662 4.46545Z" fill="#33AADD"/>
<path d="M271.181 22.6836H256.594L255.865 17.5825L267.534 13.9389H255.865L255.135 9.56653H277.745L277.016 14.6676L267.534 18.3113H276.286L274.828 32.1571L266.075 35.072L257.323 32.1571L256.594 24.8698H260.97L261.699 28.5134L266.075 29.9709L270.452 28.5134L271.181 22.6836Z" fill="white"/>
<path d="M312.754 37.9869L309.837 1.55054H344.845L341.928 37.9869L327.341 42.3593L312.754 37.9869Z" fill="#E44D26"/>
<path d="M341.928 4.46545H327.341V40.1731L339.01 36.5295L341.928 4.46545Z" fill="#F16529"/>
<path d="M317.859 22.6836L316.401 8.83777H339.01L338.281 13.2101H320.777L321.506 18.3112H337.552L336.093 32.157L327.341 35.072L318.589 32.157L317.859 24.8698H322.235L322.965 28.5134L327.341 29.9709L331.717 28.5134L332.446 22.6836H317.859Z" fill="white"/>
<path d="M409.028 0.0930176H368.184V40.9018H409.028V0.0930176Z" fill="#FFCA28"/>
<path d="M392.982 34.0517L396.046 32.0112C396.337 32.74 397.796 34.4889 399.692 34.4889C401.589 34.4889 402.464 33.4687 402.464 32.74C402.464 30.8453 400.568 30.2623 399.546 29.9708C399.401 29.9708 399.255 29.8251 399.255 29.8251C399.255 29.8251 399.109 29.8251 399.109 29.6793C398.088 29.2421 394.295 27.7846 394.295 23.7038C394.295 19.0399 398.817 18.6027 399.838 18.6027C400.568 18.6027 403.631 18.7484 405.235 21.6633L402.318 23.7038C401.734 22.392 400.568 21.9548 399.984 21.9548C398.379 21.9548 398.088 23.1208 398.088 23.7038C398.088 25.1612 399.838 25.8899 401.297 26.4729C401.734 26.6187 402.026 26.7644 402.318 26.9101C403.923 27.6389 406.256 28.9506 406.256 32.8857C406.256 34.9261 404.652 37.9868 400.422 37.9868C394.733 37.9868 393.274 34.6347 392.982 34.0517Z" fill="#3E3E3E"/>
<path d="M378.395 34.4889L381.459 32.4485C381.75 33.1772 382.625 34.4889 384.084 34.4889C385.397 34.4889 386.126 33.0315 386.126 32.4485V19.0399H389.919V32.4485C389.919 34.3432 388.898 37.9868 384.376 37.9868C380.437 37.9868 378.687 35.5092 378.395 34.4889Z" fill="#3E3E3E"/>
<path fill-rule="evenodd" clip-rule="evenodd" d="M204.81 20.55C204.81 17.3436 207.436 14.7202 210.645 14.7202C213.854 14.7202 216.48 17.3436 216.48 20.55C216.48 23.7564 213.854 26.3799 210.645 26.3799C207.436 26.3799 204.81 23.7564 204.81 20.55Z" fill="#1ABCFE"/>
<path fill-rule="evenodd" clip-rule="evenodd" d="M193.141 32.2097C193.141 29.0033 195.766 26.3799 198.975 26.3799H204.81V32.2097C204.81 35.4161 202.184 38.0395 198.975 38.0395C195.766 38.0395 193.141 35.4161 193.141 32.2097Z" fill="#0ACF83"/>
<path fill-rule="evenodd" clip-rule="evenodd" d="M204.81 3.06067V14.7203H210.645C213.854 14.7203 216.48 12.0969 216.48 8.89049C216.48 5.68409 213.854 3.06067 210.645 3.06067H204.81Z" fill="#FF7262"/>
<path fill-rule="evenodd" clip-rule="evenodd" d="M193.141 8.89049C193.141 12.0969 195.766 14.7203 198.975 14.7203H204.81V3.06067H198.975C195.766 3.06067 193.141 5.68409 193.141 8.89049Z" fill="#F24E1E"/>
<path fill-rule="evenodd" clip-rule="evenodd" d="M193.141 20.55C193.141 23.7564 195.766 26.3799 198.975 26.3799H204.81V14.7202H198.975C195.766 14.7202 193.141 17.3436 193.141 20.55Z" fill="#A259FF"/>
<path d="M123.123 14.866C123.123 9.76495 123.123 7.14153 124.144 5.10109C125.019 3.35215 126.478 1.89469 128.229 1.02022C130.271 0 132.751 0 138.002 0H149.234C154.339 0 156.965 0 159.007 1.02022C160.758 1.89469 162.216 3.35215 163.091 5.10109C164.113 7.14153 164.113 9.6192 164.113 14.866V26.0884C164.113 31.1895 164.113 33.8129 163.091 35.8534C162.216 37.6023 160.758 39.0598 159.007 39.9343C156.965 40.9545 154.485 40.9545 149.234 40.9545H138.002C132.896 40.9545 130.271 40.9545 128.229 39.9343C126.478 39.0598 125.019 37.6023 124.144 35.8534C123.123 33.8129 123.123 31.3353 123.123 26.0884V14.866Z" fill="#00005B"/>
<path d="M131.875 29.0033V10.6394C131.875 10.4936 131.875 10.4936 132.021 10.4936C133.772 10.4936 135.522 10.3479 137.272 10.3479C140.19 10.3479 143.253 11.3681 144.274 14.4288C144.566 15.1575 144.712 15.8862 144.712 16.7607C144.712 18.3639 144.42 19.5299 143.691 20.5501C141.794 23.3192 138.439 23.3192 135.522 23.3192V29.0033C135.522 29.1491 135.376 29.2948 135.23 29.2948H132.021C131.875 29.2948 131.875 29.1491 131.875 29.0033ZM135.668 13.8458V19.8214C136.835 19.9671 138.002 19.9671 139.169 19.5299C140.482 19.0926 141.065 18.0724 141.065 16.7607C141.065 15.5947 140.482 14.5745 139.46 14.1373C138.294 13.7 136.835 13.7 135.668 13.8458Z" fill="#9999FF"/>
<path d="M147.046 15.0118H150.109C150.255 15.0118 150.401 15.1575 150.401 15.3033C150.547 15.7405 150.693 16.4692 150.693 16.9065C151.276 16.3235 151.86 15.7405 152.589 15.3033C153.318 14.866 154.194 14.5745 155.069 14.7203C155.215 14.7203 155.36 14.866 155.36 15.0118V18.5097C155.36 18.6554 155.215 18.6554 155.069 18.6554C153.756 18.5097 151.86 18.9469 150.839 19.9671V29.0033C150.839 29.1491 150.839 29.2948 150.547 29.2948H147.338C147.192 29.2948 147.046 29.1491 147.046 29.0033V19.2384C147.046 17.9267 147.046 16.615 146.9 15.3033C146.9 15.1575 147.046 15.0118 147.046 15.0118Z" fill="#9999FF"/>
<path d="M61.8577 14.866C61.8577 9.76495 61.8577 7.14153 62.8788 5.10109C63.754 3.35215 65.2127 1.89469 66.9631 1.02022C69.0053 0 71.4851 0 76.7364 0H87.9684C93.0738 0 95.6995 0 97.7416 1.02022C99.4921 1.89469 100.951 3.35215 101.826 5.10109C102.847 7.14153 102.847 9.6192 102.847 14.866V26.0884C102.847 31.1895 102.847 33.8129 101.826 35.8534C100.951 37.6023 99.4921 39.0598 97.7416 39.9343C95.6995 40.9545 93.2197 40.9545 87.9684 40.9545H76.7364C71.6309 40.9545 69.0053 40.9545 66.9631 39.9343C65.2127 39.0598 63.754 37.6023 62.8788 35.8534C61.8577 33.8129 61.8577 31.3353 61.8577 26.0884V14.866Z" fill="#330000"/>
<path d="M81.6961 25.7969H75.4237L74.1109 29.8777C74.1109 30.0235 73.965 30.1692 73.8191 30.1692H70.61C70.4641 30.1692 70.3182 30.0235 70.4641 29.8777L76.0072 13.7C76.0072 13.5542 76.153 13.4085 76.153 13.117C76.2989 12.6798 76.2989 12.3883 76.2989 11.951C76.2989 11.8053 76.4448 11.8053 76.4448 11.8053H80.8209C80.9667 11.8053 80.9667 11.8053 81.1126 11.951L87.385 29.8777C87.385 30.0235 87.385 30.1692 87.2391 30.1692H83.7383C83.5924 30.1692 83.4465 30.1692 83.4465 30.0235L81.6961 25.7969ZM76.2989 22.299H80.675C79.9456 19.8213 79.2163 17.4894 78.4869 15.0117C77.7576 17.4894 77.0283 19.8213 76.2989 22.299Z" fill="#FF9A00"/>
<path d="M90.74 14.7203C90.4483 14.7203 90.1566 14.7203 89.8648 14.5745C89.5731 14.4288 89.4272 14.283 89.1355 14.1373C88.9896 13.9915 88.8437 13.7 88.6979 13.4086C88.552 13.1171 88.552 12.8256 88.552 12.5341C88.552 12.2426 88.552 11.9511 88.6979 11.6596C88.8437 11.3681 88.9896 11.0766 89.1355 10.9309C89.2814 10.7851 89.5731 10.6394 89.8648 10.4936C90.1566 10.3479 90.4483 10.3479 90.74 10.3479C91.4694 10.3479 91.907 10.4936 92.3446 10.9309C92.4905 11.0766 92.6364 11.3681 92.7822 11.6596C92.9281 11.9511 92.9281 12.2426 92.9281 12.5341C92.9281 12.8256 92.9281 13.1171 92.7822 13.4086C92.6364 13.7 92.4905 13.9915 92.3446 14.1373C92.1988 14.283 91.907 14.5745 91.6153 14.5745C91.3235 14.7203 91.0318 14.7203 90.74 14.7203ZM88.8437 29.8778V16.4692C88.8437 16.3235 88.9896 16.1777 89.1355 16.1777H92.4905C92.6364 16.1777 92.7822 16.3235 92.7822 16.4692V29.8778C92.7822 30.0235 92.6364 30.1693 92.4905 30.1693H89.1355C88.9896 30.1693 88.8437 30.0235 88.8437 29.8778Z" fill="#FF9A00"/>
<path d="M0.592407 14.866C0.592407 9.76495 0.592407 7.14153 1.6135 5.10109C2.48871 3.35215 3.94741 1.89469 5.69785 1.02022C7.74003 0 10.2198 0 15.4711 0H26.7031C31.8085 0 34.4342 0 36.4764 1.02022C38.2268 1.89469 39.6855 3.35215 40.5607 5.10109C41.5818 7.14153 41.5818 9.6192 41.5818 14.866V26.0884C41.5818 31.1895 41.5818 33.8129 40.5607 35.8534C39.6855 37.6023 38.2268 39.0598 36.4764 39.9343C34.4342 40.9545 31.9544 40.9545 26.7031 40.9545H15.4711C10.3657 40.9545 7.74003 40.9545 5.69785 39.9343C3.94741 39.0598 2.48871 37.6023 1.6135 35.8534C0.592407 33.8129 0.592407 31.3353 0.592407 26.0884V14.866Z" fill="#001E36"/>
<path d="M9.3446 30.0235V12.0968C9.3446 11.951 9.3446 11.951 9.49047 11.951C11.2409 11.951 12.9914 11.8053 14.7418 11.8053C17.6592 11.8053 20.7225 12.8255 21.7435 15.7404C22.0353 16.4692 22.1812 17.1979 22.1812 18.0724C22.1812 19.5298 21.8894 20.8415 21.1601 21.716C19.2638 24.4852 15.9087 24.3394 12.9914 24.3394V29.8777C12.9914 30.0235 12.8455 30.1692 12.6996 30.1692H9.49047C9.3446 30.315 9.3446 30.1692 9.3446 30.0235ZM12.9914 15.3032V21.133C14.1583 21.2788 15.3253 21.2788 16.4922 20.8415C17.8051 20.55 18.3885 19.3841 18.3885 18.0724C18.3885 16.9064 17.8051 15.8862 16.784 15.5947C15.7629 15.1574 14.3042 15.1574 12.9914 15.3032Z" fill="#31A8FF"/>
<path d="M32.8296 19.9671C32.2461 19.6756 31.8085 19.5299 31.225 19.3841C30.4957 19.2384 27.5783 18.6554 27.5783 20.1129C27.5783 20.9873 28.8911 21.4246 29.4746 21.5703C31.5167 22.299 33.8507 23.6107 33.8507 26.0884C33.8507 29.2948 30.7874 30.4608 28.1617 30.4608C26.8489 30.4608 25.3902 30.315 24.0774 29.7321C23.9315 29.7321 23.9315 29.5863 23.9315 29.4406V26.3799C23.9315 26.2342 24.0774 26.0884 24.2233 26.2342C25.3902 26.9629 26.8489 27.4001 28.3076 27.4001C28.8911 27.4001 30.2039 27.4001 30.2039 26.3799C30.2039 25.5054 28.7452 25.0682 28.1617 24.9225C27.2865 24.631 26.5572 24.1937 25.682 23.6107C24.6609 22.882 23.9315 21.7161 23.9315 20.4043C23.9315 17.4894 26.703 16.032 29.3287 16.032C30.4957 16.032 31.8085 16.1777 32.9754 16.615C33.1213 16.615 33.1213 16.7607 33.1213 17.0522V19.8214C33.1213 19.9671 32.9754 20.1129 32.8296 19.9671Z" fill="#31A8FF"/>
<path d="M496.55 14.866C496.55 9.76494 496.55 7.14153 497.571 5.10109C498.446 3.35215 499.905 1.89469 501.655 1.02021C503.697 -4.43042e-06 506.177 0 511.428 0H522.66C527.766 0 530.391 -4.43042e-06 532.434 1.02021C534.184 1.89469 535.643 3.35215 536.518 5.10109C537.539 7.14153 537.539 9.6192 537.539 14.866V26.0884C537.539 31.1895 537.539 33.813 536.518 35.8534C535.643 37.6023 534.184 39.0598 532.434 39.9342C530.391 40.9545 527.912 40.9545 522.66 40.9545H511.428C506.323 40.9545 503.697 40.9545 501.655 39.9342C499.905 39.0598 498.446 37.6023 497.571 35.8534C496.55 33.813 496.55 31.3353 496.55 26.0884V14.866Z" fill="#242424"/>
<path d="M508.073 21.133C502.384 25.3597 501.218 31.481 501.218 36.5821C501.509 35.1246 502.676 31.481 505.302 29.4405C509.24 26.3799 516.534 27.4001 524.557 22.0075C532.58 16.7607 533.309 9.7649 532.288 4.51807C531.558 9.61916 529.225 11.8053 525.87 13.8458C518.576 18.0724 514.054 16.6149 508.073 21.133Z" fill="url(#paint12_linear_91_273)"/>
<path d="M508.073 21.133C502.384 25.3597 501.218 31.481 501.218 36.5821C501.509 35.1246 502.676 31.481 505.302 29.4405C509.24 26.3799 516.534 27.4001 524.557 22.0075C532.58 16.7607 533.309 9.7649 532.288 4.51807C531.558 9.61916 529.225 11.8053 525.87 13.8458C518.576 18.0724 514.054 16.6149 508.073 21.133Z" fill="url(#paint13_linear_91_273)"/>
<path d="M501.218 34.3959C501.509 29.7321 502.968 24.7767 507.928 21.1331C511.137 18.8011 513.908 18.0724 516.826 17.3437C518.576 16.9064 520.326 16.4692 522.223 15.5947C521.493 16.3235 518.138 17.9267 515.513 18.9469C513.033 19.9671 510.261 21.1331 508.073 22.5905C503.697 25.6512 501.801 30.7523 501.218 34.3959Z" fill="url(#paint14_linear_91_273)"/>
<path d="M501.218 34.3959C501.509 29.7321 502.968 24.7767 507.928 21.1331C511.137 18.8011 513.908 18.0724 516.826 17.3437C518.576 16.9064 520.326 16.4692 522.223 15.5947C521.493 16.3235 518.138 17.9267 515.513 18.9469C513.033 19.9671 510.261 21.1331 508.073 22.5905C503.697 25.6512 501.801 30.7523 501.218 34.3959Z" fill="url(#paint15_linear_91_273)"/>
<path d="M528.933 18.2182C528.349 18.8011 527.766 19.2384 527.037 19.6756C523.973 21.5703 520.618 22.1533 517.409 22.7363C514.784 23.1735 512.304 23.6107 509.97 24.7767C504.719 27.2544 501.509 32.2097 501.072 36.5821C501.072 36.2906 501.072 35.8533 501.072 35.5619C501.072 34.9789 501.218 34.3959 501.218 33.8129C501.947 30.1693 503.843 25.5054 507.928 22.7363C509.678 21.5703 511.72 20.5501 513.762 19.6756C515.513 19.0926 517.263 18.6554 518.722 18.3639C521.202 17.7809 523.39 17.3437 525.87 16.032C530.975 13.4086 532.434 7.87022 531.996 4.66382C533.163 8.59895 532.871 13.7 528.933 18.2182Z" fill="url(#paint16_linear_91_273)"/>
<path d="M528.933 18.2181C528.349 18.8011 527.766 19.2384 527.037 19.6756C523.973 21.5703 520.618 22.1533 517.409 22.7363C514.783 23.1735 512.304 23.6107 509.97 24.7767C506.907 26.2341 504.573 28.4203 503.114 30.898C504.427 29.0033 506.469 26.9629 509.095 26.0884C511.574 25.3597 513.908 25.2139 516.388 25.0682C517.117 25.0682 517.847 25.0682 518.576 24.9224C520.472 24.1937 522.515 23.3192 524.703 21.8618C526.453 20.6958 527.766 19.5298 528.933 18.2181Z" fill="url(#paint17_linear_91_273)"/>
<path d="M528.933 18.2181C528.349 18.8011 527.766 19.2384 527.037 19.6756C523.973 21.5703 520.618 22.1533 517.409 22.7363C514.783 23.1735 512.304 23.6107 509.97 24.7767C506.907 26.2341 504.573 28.4203 503.114 30.898C504.427 29.0033 506.469 26.9629 509.095 26.0884C511.574 25.3597 513.908 25.2139 516.388 25.0682C517.117 25.0682 517.847 25.0682 518.576 24.9224C520.472 24.1937 522.515 23.3192 524.703 21.8618C526.453 20.6958 527.766 19.5298 528.933 18.2181Z" fill="url(#paint18_linear_91_273)"/>
<path d="M532.288 4.51807C531.559 9.47341 529.079 11.8053 525.87 13.7C524.557 14.4287 523.39 15.0117 522.369 15.449C521.639 16.1777 518.284 17.7809 515.659 18.8011C515.075 18.9468 514.638 19.2383 514.054 19.5298C515.805 18.9468 517.555 18.5096 519.014 18.2181C521.494 17.6351 523.682 17.1979 526.161 15.8862C531.413 13.2628 532.726 7.72447 532.288 4.51807Z" fill="url(#paint19_linear_91_273)"/>
<path d="M532.288 4.51807C531.559 9.47341 529.079 11.8053 525.87 13.7C524.557 14.4287 523.39 15.0117 522.369 15.449C521.639 16.1777 518.284 17.7809 515.659 18.8011C515.075 18.9468 514.638 19.2383 514.054 19.5298C515.805 18.9468 517.555 18.5096 519.014 18.2181C521.494 17.6351 523.682 17.1979 526.161 15.8862C531.413 13.2628 532.726 7.72447 532.288 4.51807Z" fill="url(#paint20_linear_91_273)"/>
<path d="M457.165 1.69628C457.165 0.384568 455.706 0.384569 455.123 0.530314C455.998 -0.198413 457.019 -0.0526686 457.457 0.238822L466.063 4.46544C466.938 4.90267 467.376 5.77715 467.376 6.65162V34.489C467.376 35.3635 466.792 36.2379 466.063 36.6752L457.894 40.4646C457.311 40.7561 456.144 41.339 455.123 40.4646C456.436 40.7561 457.019 39.7358 457.165 39.1529V1.69628Z" fill="url(#paint21_linear_91_273)"/>
<path d="M455.269 0.530403C455.998 0.384658 457.311 0.530402 457.311 1.69637V11.3156L431.2 31.137C430.762 31.4284 430.033 31.4284 429.741 30.9912L427.116 28.0763C426.678 27.6391 426.678 26.9103 427.116 26.4731L455.269 0.530403Z" fill="url(#paint22_linear_91_273)"/>
<path d="M457.165 29.8252L431.054 10.0038C430.617 9.71232 429.887 9.71232 429.595 10.1496L426.97 13.0645C426.532 13.5017 426.532 14.2304 426.97 14.6677L455.123 40.4646C456.436 40.7561 457.019 39.7359 457.165 39.1529V29.8252Z" fill="url(#paint23_linear_91_273)"/>
<path d="M251.488 37.9869L248.571 1.55054H283.58L280.662 37.9869L266.075 42.3593L251.488 37.9869Z" fill="#1172B8"/>
<path d="M280.662 4.46545H266.075V40.1731L277.745 36.5295L280.662 4.46545Z" fill="#33AADD"/>
<path d="M271.181 22.6836H256.594L255.865 17.5825L267.534 13.9389H255.865L255.135 9.56653H277.745L277.016 14.6676L267.534 18.3113H276.286L274.828 32.1571L266.075 35.072L257.323 32.1571L256.594 24.8698H260.97L261.699 28.5134L266.075 29.9709L270.452 28.5134L271.181 22.6836Z" fill="white"/>
<path d="M312.754 37.9869L309.837 1.55054H344.845L341.928 37.9869L327.341 42.3593L312.754 37.9869Z" fill="#E44D26"/>
<path d="M341.928 4.46545H327.341V40.1731L339.01 36.5295L341.928 4.46545Z" fill="#F16529"/>
<path d="M317.859 22.6836L316.401 8.83777H339.01L338.281 13.2101H320.777L321.506 18.3112H337.552L336.093 32.157L327.341 35.072L318.589 32.157L317.859 24.8698H322.235L322.965 28.5134L327.341 29.9709L331.717 28.5134L332.446 22.6836H317.859Z" fill="white"/>
<path d="M409.028 0.0930176H368.184V40.9018H409.028V0.0930176Z" fill="#FFCA28"/>
<path d="M392.982 34.0517L396.046 32.0112C396.337 32.74 397.796 34.4889 399.692 34.4889C401.589 34.4889 402.464 33.4687 402.464 32.74C402.464 30.8453 400.568 30.2623 399.546 29.9708C399.401 29.9708 399.255 29.8251 399.255 29.8251C399.255 29.8251 399.109 29.8251 399.109 29.6793C398.088 29.2421 394.295 27.7846 394.295 23.7038C394.295 19.0399 398.817 18.6027 399.838 18.6027C400.568 18.6027 403.631 18.7484 405.235 21.6633L402.318 23.7038C401.734 22.392 400.568 21.9548 399.984 21.9548C398.379 21.9548 398.088 23.1208 398.088 23.7038C398.088 25.1612 399.838 25.8899 401.297 26.4729C401.734 26.6187 402.026 26.7644 402.318 26.9101C403.923 27.6389 406.256 28.9506 406.256 32.8857C406.256 34.9261 404.652 37.9868 400.422 37.9868C394.733 37.9868 393.274 34.6347 392.982 34.0517Z" fill="#3E3E3E"/>
<path d="M378.395 34.4889L381.459 32.4485C381.75 33.1772 382.625 34.4889 384.084 34.4889C385.397 34.4889 386.126 33.0315 386.126 32.4485V19.0399H389.919V32.4485C389.919 34.3432 388.898 37.9868 384.376 37.9868C380.437 37.9868 378.687 35.5092 378.395 34.4889Z" fill="#3E3E3E"/>
<path fill-rule="evenodd" clip-rule="evenodd" d="M204.81 20.55C204.81 17.3436 207.436 14.7202 210.645 14.7202C213.854 14.7202 216.48 17.3436 216.48 20.55C216.48 23.7564 213.854 26.3799 210.645 26.3799C207.436 26.3799 204.81 23.7564 204.81 20.55Z" fill="#1ABCFE"/>
<path fill-rule="evenodd" clip-rule="evenodd" d="M193.141 32.2097C193.141 29.0033 195.766 26.3799 198.975 26.3799H204.81V32.2097C204.81 35.4161 202.184 38.0395 198.975 38.0395C195.766 38.0395 193.141 35.4161 193.141 32.2097Z" fill="#0ACF83"/>
<path fill-rule="evenodd" clip-rule="evenodd" d="M204.81 3.06067V14.7203H210.645C213.854 14.7203 216.48 12.0969 216.48 8.89049C216.48 5.68409 213.854 3.06067 210.645 3.06067H204.81Z" fill="#FF7262"/>
<path fill-rule="evenodd" clip-rule="evenodd" d="M193.141 8.89049C193.141 12.0969 195.766 14.7203 198.975 14.7203H204.81V3.06067H198.975C195.766 3.06067 193.141 5.68409 193.141 8.89049Z" fill="#F24E1E"/>
<path fill-rule="evenodd" clip-rule="evenodd" d="M193.141 20.55C193.141 23.7564 195.766 26.3799 198.975 26.3799H204.81V14.7202H198.975C195.766 14.7202 193.141 17.3436 193.141 20.55Z" fill="#A259FF"/>
<defs>
<linearGradient id="paint0_linear_91_273" x1="517.066" y1="21.0417" x2="500.253" y2="33.104" gradientUnits="userSpaceOnUse">
<stop stop-color="#FE5004"/>
<stop offset="0.6025" stop-color="#FFB915"/>
<stop offset="1" stop-color="#FFFC41"/>
</linearGradient>
<linearGradient id="paint1_linear_91_273" x1="517.067" y1="24.5136" x2="517.164" y2="26.2626" gradientUnits="userSpaceOnUse">
<stop stop-color="#FD3E00"/>
<stop offset="1" stop-color="#FD4400" stop-opacity="0"/>
</linearGradient>
<linearGradient id="paint2_linear_91_273" x1="520.94" y1="13.1695" x2="497.229" y2="34.2747" gradientUnits="userSpaceOnUse">
<stop stop-color="#005FC6"/>
<stop offset="0.2798" stop-color="#23A4DF"/>
<stop offset="0.4652" stop-color="#3AC2B7"/>
<stop offset="0.6406" stop-color="#60EC7A"/>
<stop offset="0.8187" stop-color="#CFFDBD"/>
<stop offset="1" stop-color="#D0FCB6"/>
</linearGradient>
<linearGradient id="paint3_linear_91_273" x1="511.793" y1="25.0612" x2="509.752" y2="23.2129" gradientUnits="userSpaceOnUse">
<stop stop-color="#0061CB"/>
<stop offset="1" stop-color="#067EEA" stop-opacity="0"/>
</linearGradient>
<linearGradient id="paint4_linear_91_273" x1="533.148" y1="5.21386" x2="501.959" y2="37.2068" gradientUnits="userSpaceOnUse">
<stop stop-color="#8E55F1"/>
<stop offset="0.1408" stop-color="#8B48DF"/>
<stop offset="0.2749" stop-color="#E04DD9"/>
<stop offset="0.4923" stop-color="#F496C8"/>
<stop offset="0.6331" stop-color="#FAD2BA"/>
<stop offset="0.857" stop-color="#FEF7E5"/>
<stop offset="1" stop-color="#FFF5BF"/>
</linearGradient>
<linearGradient id="paint5_linear_91_273" x1="529.44" y1="18.0332" x2="503.969" y2="29.5634" gradientUnits="userSpaceOnUse">
<stop stop-color="#F41A73"/>
<stop offset="0.3999" stop-color="#FC50A3"/>
<stop offset="0.5845" stop-color="#FE9485"/>
<stop offset="0.7031" stop-color="#FFAF88"/>
<stop offset="1" stop-color="#FFC385"/>
</linearGradient>
<linearGradient id="paint6_linear_91_273" x1="515.961" y1="21.5114" x2="516.009" y2="23.8433" gradientUnits="userSpaceOnUse">
<stop stop-color="#9B0008"/>
<stop offset="1" stop-color="#EA115A" stop-opacity="0"/>
</linearGradient>
<linearGradient id="paint7_linear_91_273" x1="532.897" y1="7.85053" x2="509.91" y2="22.8804" gradientUnits="userSpaceOnUse">
<stop stop-color="#231283"/>
<stop offset="0.3629" stop-color="#7053C6"/>
<stop offset="0.4664" stop-color="#7272DB"/>
<stop offset="0.6343" stop-color="#399EE9"/>
<stop offset="1" stop-color="#00CFFF"/>
</linearGradient>
<linearGradient id="paint8_linear_91_273" x1="525.808" y1="15.4112" x2="526.828" y2="16.7238" gradientUnits="userSpaceOnUse">
<stop stop-color="#3F259D" stop-opacity="0"/>
<stop offset="1" stop-color="#412DAA"/>
</linearGradient>
<linearGradient id="paint9_linear_91_273" x1="461.249" y1="0.0927859" x2="461.249" y2="40.9018" gradientUnits="userSpaceOnUse">
<stop stop-color="#32B5F1"/>
<stop offset="1" stop-color="#2B9FED"/>
</linearGradient>
<linearGradient id="paint10_linear_91_273" x1="457.14" y1="5.21014" x2="428.015" y2="29.6774" gradientUnits="userSpaceOnUse">
<stop stop-color="#0F6FB3"/>
<stop offset="0.2706" stop-color="#1279B7"/>
<stop offset="0.4214" stop-color="#1176B5"/>
<stop offset="0.6182" stop-color="#0E69AC"/>
<stop offset="0.8553" stop-color="#0F70AF"/>
<stop offset="1" stop-color="#0F6DAD"/>
</linearGradient>
<linearGradient id="paint11_linear_91_273" x1="428.064" y1="11.9145" x2="457.107" y2="35.9825" gradientUnits="userSpaceOnUse">
<stop stop-color="#1791D2"/>
<stop offset="1" stop-color="#1173C5"/>
</linearGradient>
<linearGradient id="paint12_linear_91_273" x1="517.066" y1="21.0417" x2="500.253" y2="33.104" gradientUnits="userSpaceOnUse">
<stop stop-color="#FE5004"/>
<stop offset="0.6025" stop-color="#FFB915"/>
<stop offset="1" stop-color="#FFFC41"/>
</linearGradient>
<linearGradient id="paint13_linear_91_273" x1="517.067" y1="24.5136" x2="517.164" y2="26.2626" gradientUnits="userSpaceOnUse">
<stop stop-color="#FD3E00"/>
<stop offset="1" stop-color="#FD4400" stop-opacity="0"/>
</linearGradient>
<linearGradient id="paint14_linear_91_273" x1="520.94" y1="13.1695" x2="497.229" y2="34.2747" gradientUnits="userSpaceOnUse">
<stop stop-color="#005FC6"/>
<stop offset="0.2798" stop-color="#23A4DF"/>
<stop offset="0.4652" stop-color="#3AC2B7"/>
<stop offset="0.6406" stop-color="#60EC7A"/>
<stop offset="0.8187" stop-color="#CFFDBD"/>
<stop offset="1" stop-color="#D0FCB6"/>
</linearGradient>
<linearGradient id="paint15_linear_91_273" x1="511.793" y1="25.0612" x2="509.752" y2="23.2129" gradientUnits="userSpaceOnUse">
<stop stop-color="#0061CB"/>
<stop offset="1" stop-color="#067EEA" stop-opacity="0"/>
</linearGradient>
<linearGradient id="paint16_linear_91_273" x1="533.148" y1="5.21386" x2="501.959" y2="37.2068" gradientUnits="userSpaceOnUse">
<stop stop-color="#8E55F1"/>
<stop offset="0.1408" stop-color="#8B48DF"/>
<stop offset="0.2749" stop-color="#E04DD9"/>
<stop offset="0.4923" stop-color="#F496C8"/>
<stop offset="0.6331" stop-color="#FAD2BA"/>
<stop offset="0.857" stop-color="#FEF7E5"/>
<stop offset="1" stop-color="#FFF5BF"/>
</linearGradient>
<linearGradient id="paint17_linear_91_273" x1="529.44" y1="18.0332" x2="503.969" y2="29.5634" gradientUnits="userSpaceOnUse">
<stop stop-color="#F41A73"/>
<stop offset="0.3999" stop-color="#FC50A3"/>
<stop offset="0.5845" stop-color="#FE9485"/>
<stop offset="0.7031" stop-color="#FFAF88"/>
<stop offset="1" stop-color="#FFC385"/>
</linearGradient>
<linearGradient id="paint18_linear_91_273" x1="515.961" y1="21.5114" x2="516.009" y2="23.8433" gradientUnits="userSpaceOnUse">
<stop stop-color="#9B0008"/>
<stop offset="1" stop-color="#EA115A" stop-opacity="0"/>
</linearGradient>
<linearGradient id="paint19_linear_91_273" x1="532.897" y1="7.85053" x2="509.91" y2="22.8804" gradientUnits="userSpaceOnUse">
<stop stop-color="#231283"/>
<stop offset="0.3629" stop-color="#7053C6"/>
<stop offset="0.4664" stop-color="#7272DB"/>
<stop offset="0.6343" stop-color="#399EE9"/>
<stop offset="1" stop-color="#00CFFF"/>
</linearGradient>
<linearGradient id="paint20_linear_91_273" x1="525.808" y1="15.4112" x2="526.828" y2="16.7238" gradientUnits="userSpaceOnUse">
<stop stop-color="#3F259D" stop-opacity="0"/>
<stop offset="1" stop-color="#412DAA"/>
</linearGradient>
<linearGradient id="paint21_linear_91_273" x1="461.249" y1="0.0927859" x2="461.249" y2="40.9018" gradientUnits="userSpaceOnUse">
<stop stop-color="#32B5F1"/>
<stop offset="1" stop-color="#2B9FED"/>
</linearGradient>
<linearGradient id="paint22_linear_91_273" x1="457.14" y1="5.21014" x2="428.015" y2="29.6774" gradientUnits="userSpaceOnUse">
<stop stop-color="#0F6FB3"/>
<stop offset="0.2706" stop-color="#1279B7"/>
<stop offset="0.4214" stop-color="#1176B5"/>
<stop offset="0.6182" stop-color="#0E69AC"/>
<stop offset="0.8553" stop-color="#0F70AF"/>
<stop offset="1" stop-color="#0F6DAD"/>
</linearGradient>
<linearGradient id="paint23_linear_91_273" x1="428.064" y1="11.9145" x2="457.107" y2="35.9825" gradientUnits="userSpaceOnUse">
<stop stop-color="#1791D2"/>
<stop offset="1" stop-color="#1173C5"/>
</linearGradient>
</defs>
</svg>
