<svg width="870" height="443" viewBox="0 0 870 443" fill="none" xmlns="http://www.w3.org/2000/svg">
<g clip-path="url(#clip0_23_212)">
<mask id="mask0_23_212" style="mask-type:luminance" maskUnits="userSpaceOnUse" x="0" y="0" width="870" height="443">
<path d="M870 0H0.34668V443H870V0Z" fill="white"/>
</mask>
<g mask="url(#mask0_23_212)">
<path fill-rule="evenodd" clip-rule="evenodd" d="M0 222.944V219.515C402.323 219.515 431.57 186.325 431.57 0H438.248C438.248 186.325 467.531 219.515 869.854 219.515V222.944C467.531 222.944 438.248 256.098 438.248 442.422H431.57C431.57 256.098 402.323 222.944 0 222.944Z" fill="white"/>
</g>
</g>
<path d="M121.8 246V177.264H177.192C196.68 177.264 207.528 185.904 207.528 201.456C207.432 216.624 196.584 224.976 177 224.976H146.856V246H121.8ZM146.856 210.864H168.84C177.576 210.864 182.376 207.408 182.376 201.072C182.376 194.832 177.576 191.376 168.84 191.376H146.856V210.864ZM258.927 247.536C234.927 247.536 219.183 237.168 219.183 221.232C219.183 205.296 234.927 194.832 258.927 194.832C283.023 194.832 298.767 205.296 298.767 221.232C298.767 237.168 283.023 247.536 258.927 247.536ZM258.927 234.288C269.295 234.288 276.015 229.104 276.015 221.232C276.015 213.36 269.295 208.176 258.927 208.176C248.559 208.176 241.839 213.36 241.839 221.232C241.839 229.104 248.559 234.288 258.927 234.288ZM357.041 194.832C368.081 194.832 375.665 203.376 376.433 216.624L355.697 220.656C355.313 213.264 352.049 208.56 347.345 208.56C340.913 208.56 337.073 214.512 337.073 223.92V246H314.321V196.464H333.233L336.305 207.888H336.401C340.049 199.824 348.113 194.832 357.041 194.832ZM427.533 247.536C411.405 247.536 401.517 240.24 401.517 228.336L401.421 210.288H387.597V196.464H401.421V183.216L424.077 179.184V196.464H454.317V210.288H424.077V223.248C424.077 229.2 427.149 232.272 434.061 232.272C440.781 232.272 445.773 229.872 451.149 224.976L455.949 237.744C448.269 244.656 439.725 247.536 427.533 247.536ZM480.583 246V210.192H466.759V196.464H480.583V192.816C480.583 179.952 491.143 172.752 509.383 172.752C518.311 172.752 527.239 175.056 533.671 179.088L528.775 192.144C524.263 189.36 518.695 187.728 513.703 187.728C507.175 187.728 503.335 190.512 503.335 195.216V196.464H529.927V210.192H503.335V246H480.583ZM581.015 247.536C557.015 247.536 541.271 237.168 541.271 221.232C541.271 205.296 557.015 194.832 581.015 194.832C605.111 194.832 620.855 205.296 620.855 221.232C620.855 237.168 605.111 247.536 581.015 247.536ZM581.015 234.288C591.383 234.288 598.103 229.104 598.103 221.232C598.103 213.36 591.383 208.176 581.015 208.176C570.647 208.176 563.927 213.36 563.927 221.232C563.927 229.104 570.647 234.288 581.015 234.288ZM636.409 246V174.384H659.161V246H636.409ZM688.19 191.184C680.894 191.184 675.614 186.576 675.614 180.048C675.614 173.52 680.894 169.008 688.19 169.008C695.486 169.008 700.766 173.52 700.766 180.048C700.766 186.576 695.486 191.184 688.19 191.184ZM676.862 246V196.464H699.518V246H676.862ZM755.314 247.536C731.314 247.536 715.57 237.168 715.57 221.232C715.57 205.296 731.314 194.832 755.314 194.832C779.41 194.832 795.154 205.296 795.154 221.232C795.154 237.168 779.41 247.536 755.314 247.536ZM755.314 234.288C765.682 234.288 772.402 229.104 772.402 221.232C772.402 213.36 765.682 208.176 755.314 208.176C744.946 208.176 738.226 213.36 738.226 221.232C738.226 229.104 744.946 234.288 755.314 234.288Z" fill="black"/>
<defs>
<clipPath id="clip0_23_212">
<rect width="870" height="443" fill="white"/>
</clipPath>
</defs>
</svg>
